<svg width="559" height="356" viewBox="0 0 559 356" fill="none" xmlns="http://www.w3.org/2000/svg">
<path d="M15.748 121.399L245.242 80.3214C247.304 80.0042 249.366 80.0042 251.428 80.3214L532.784 127.426L482.825 137.417L244.925 96.0228C243.815 95.8642 242.863 95.8642 241.753 96.0228L57.1427 128.06L15.748 121.399Z" fill="#5964C6" stroke="black" stroke-width="0.5" stroke-linecap="round" stroke-linejoin="round"/>
<path d="M331.838 267.152L321.212 265.249" stroke="black" stroke-width="0.5" stroke-linecap="round" stroke-linejoin="round"/>
<path d="M284.258 265.566L272.363 267.787" stroke="black" stroke-width="0.5" stroke-linecap="round" stroke-linejoin="round"/>
<path d="M80.7743 315.049L258.248 285.074L488.535 321.711L485.363 137.259L244.925 96.0228C243.181 95.7056 241.436 95.7056 239.691 96.0228L56.8257 128.06" fill="#3A3F74"/>
<path d="M80.7743 315.049L258.248 285.074L488.535 321.711L485.363 137.259L244.925 96.0228C243.181 95.7056 241.436 95.7056 239.691 96.0228L56.8257 128.06" stroke="black" stroke-width="0.5" stroke-linecap="round" stroke-linejoin="round"/>
<path d="M141.042 326.469L243.022 309.498L399.56 338.839L395.912 153.912V153.753L305.193 134.721C303.924 134.563 302.814 134.563 301.545 134.721L201.31 154.07L137.553 325.2C137.553 325.2 141.042 326.151 141.201 326.151L141.042 326.469Z" fill="#3A3F74" stroke="black" stroke-width="0.5" stroke-linecap="round" stroke-linejoin="round"/>
<path d="M259.833 255.892L240.008 309.023" stroke="black" stroke-width="0.5" stroke-linecap="round" stroke-linejoin="round"/>
<path d="M374.025 158.67L312.964 170.248C305.351 171.675 297.897 171.834 290.126 170.248L227.162 158.828L297.58 144.554C299.8 144.079 302.179 144.079 304.4 144.554L374.025 158.67Z" fill="#5964C6" stroke="black" stroke-width="0.5" stroke-linecap="round" stroke-linejoin="round"/>
<path d="M330.569 267.311L306.145 272.069C303.131 272.703 299.959 272.703 296.946 272.069L271.887 267.787L300.118 261.918C301.07 261.76 301.863 261.76 302.814 261.918L331.204 267.311" fill="#3A3F74"/>
<path d="M330.569 267.311L306.145 272.069C303.131 272.703 299.959 272.703 296.946 272.069L271.887 267.787L300.118 261.918C301.07 261.76 301.863 261.76 302.814 261.918L331.204 267.311" stroke="black" stroke-width="0.5" stroke-linecap="round" stroke-linejoin="round"/>
<path d="M78.5537 133.294L204.006 154.863L301.545 136.466C302.497 136.307 302.973 136.307 303.924 136.466L396.388 154.546L446.664 144.396L236.678 106.649C233.506 106.015 230.334 106.015 227.162 106.649L78.8709 133.294H78.5537Z" fill="#5964C6" stroke="black" stroke-width="0.5" stroke-linecap="round" stroke-linejoin="round"/>
<path d="M453.801 174.53V183.57L475.847 178.653L453.801 174.53Z" fill="#5964C6" stroke="black" stroke-width="0.5" stroke-linecap="round" stroke-linejoin="round"/>
<path d="M301.386 172.627L230.016 158.987C224.148 157.877 218.756 162.318 218.756 168.186V245.741C218.756 250.341 222.086 254.147 226.527 254.94L301.386 268.738L374.977 254.94C378.942 254.147 381.955 250.658 381.955 246.534V167.234C381.955 161.842 377.039 157.718 371.646 158.828L301.228 172.468L301.386 172.627Z" fill="#F26241" stroke="black" stroke-width="0.5" stroke-linecap="round" stroke-linejoin="round"/>
<path d="M302.338 272.545L329.776 267.311C333.107 266.676 336.12 269.214 336.12 272.545V344.866C336.12 347.404 334.217 349.624 331.679 350.1C331.521 350.1 331.521 350.1 331.362 350.1C331.045 350.1 330.728 350.259 330.411 350.259C329.935 350.417 329.459 350.417 328.983 350.576C328.349 350.734 327.714 350.734 327.239 350.893C326.604 351.052 325.811 351.21 325.177 351.21C324.384 351.369 323.591 351.527 322.798 351.686C322.005 351.845 321.053 352.003 320.26 352.162C319.309 352.32 318.516 352.479 317.564 352.638C316.612 352.796 315.819 352.955 314.868 353.113C313.916 353.272 313.123 353.431 312.172 353.589C311.379 353.748 310.586 353.906 309.634 354.065C308.841 354.224 308.048 354.382 307.414 354.541C306.779 354.699 306.145 354.699 305.51 354.858C304.242 355.017 303.131 355.334 301.863 355.492C300.277 355.492 298.849 355.175 297.263 355.017C296.629 354.858 295.994 354.858 295.519 354.699C294.884 354.541 294.091 354.382 293.457 354.382C292.664 354.224 291.871 354.065 291.078 353.906C290.285 353.748 289.492 353.589 288.54 353.431C287.747 353.272 286.796 353.113 286.003 352.955C285.21 352.796 284.258 352.638 283.465 352.479C282.672 352.32 281.879 352.162 280.927 352.003C280.134 351.845 279.341 351.686 278.548 351.527C277.914 351.369 277.121 351.21 276.487 351.21C275.852 351.052 275.218 351.052 274.742 350.893C274.266 350.734 273.79 350.734 273.315 350.576C272.997 350.576 272.68 350.417 272.363 350.417C272.204 350.417 272.046 350.417 271.887 350.259C269.35 349.783 267.605 347.562 267.605 345.025V273.179C267.605 269.848 270.618 267.311 273.949 267.945L300.277 272.703C300.911 272.545 301.704 272.545 302.338 272.545Z" fill="#F26241" stroke="black" stroke-width="0.5" stroke-linecap="round" stroke-linejoin="round"/>
<path d="M453.801 289.515V321.552C453.801 325.517 450.946 329.006 447.14 329.799L401.939 338.839C396.705 339.791 391.947 335.985 391.947 330.592V161.207C391.947 157.718 394.485 154.705 397.974 153.912L445.078 144.554C449.678 143.603 453.96 147.092 453.96 151.85V183.887L476.005 178.971V283.964L453.96 289.515H453.801Z" fill="#F26241" stroke="black" stroke-width="0.5" stroke-linecap="round" stroke-linejoin="round"/>
<path d="M478.543 144.396V313.781C478.543 319.014 483.301 322.979 488.376 321.869L533.736 312.829C537.542 312.036 540.397 308.705 540.397 304.74V135.197C540.397 130.28 535.956 126.633 531.198 127.584L484.728 136.942C481.081 137.576 478.543 140.748 478.543 144.396Z" fill="#F26241" stroke="black" stroke-width="0.5" stroke-linecap="round" stroke-linejoin="round"/>
<path d="M64.121 133.77L107.26 256.367C107.895 258.112 107.895 260.174 107.26 262.077L88.8626 308.705C86.325 316.953 74.5886 317.111 71.7338 309.023L8.76964 133.294C6.54924 126.633 12.2588 120.13 19.0786 121.557L57.3012 127.901C60.3146 128.536 63.0108 130.756 64.121 133.77Z" fill="#F26241" stroke="black" stroke-width="0.5" stroke-linecap="round" stroke-linejoin="round"/>
<path d="M301.387 172.627V268.738" stroke="black" stroke-width="0.5" stroke-linecap="round" stroke-linejoin="round"/>
<path d="M301.387 272.703V355.175" stroke="black" stroke-width="0.5" stroke-linecap="round" stroke-linejoin="round"/>
<path d="M80.2982 133.452L203.53 155.022C208.923 155.974 210.985 166.441 207.178 174.213L148.496 321.076C145.483 328.53 134.857 328.372 132.16 320.759L73.0026 152.167C68.7204 140.272 73.637 132.342 80.2982 133.452Z" fill="#F26241" stroke="black" stroke-width="0.5" stroke-linecap="round" stroke-linejoin="round"/>
<path d="M298.056 171.516H305.352L301.228 172.468L298.056 171.516Z" fill="black"/>
<path d="M391.947 160.097C392.582 153.595 387.031 152.643 387.031 152.643L396.23 154.388C396.23 154.388 394.009 155.022 393.216 156.608C392.106 158.828 391.947 159.78 391.947 159.78" fill="black"/>
<path d="M391.947 160.097C392.582 153.595 387.031 152.643 387.031 152.643L396.23 154.388C396.23 154.388 394.009 155.022 393.216 156.608C392.106 158.828 391.947 159.78 391.947 159.78" stroke="black" stroke-width="0.5" stroke-linecap="round" stroke-linejoin="round"/>
<path d="M557.843 55.7384L548.168 54.1524L539.128 55.897L548.802 57.3244L557.843 55.7384Z" fill="#8ED943" stroke="black" stroke-width="0.5" stroke-linecap="round" stroke-linejoin="round"/>
<path d="M539.128 55.897V66.5232V66.6818L548.802 68.1092V57.3244L539.128 55.897Z" fill="#8ED943" stroke="black" stroke-width="0.5" stroke-linecap="round" stroke-linejoin="round"/>
<path d="M548.803 68.1092V57.3244L557.843 55.7384V66.5232L548.803 68.1092Z" fill="#04BF8A" stroke="black" stroke-width="0.5" stroke-linejoin="round"/>
<path d="M556.416 57.9588L558.477 57.3244" stroke="black" stroke-width="0.5" stroke-linecap="round" stroke-linejoin="round"/>
<path d="M556.416 59.069H558.636" stroke="black" stroke-width="0.5" stroke-linecap="round" stroke-linejoin="round"/>
<path d="M544.996 59.069L547.058 62.241" stroke="black" stroke-width="0.5" stroke-linecap="round" stroke-linejoin="round"/>
<path d="M544.203 60.0206L545.631 62.0824" stroke="black" stroke-width="0.5" stroke-linecap="round" stroke-linejoin="round"/>
<path d="M478.384 144.237C478.384 137.259 473.15 135.356 473.15 135.356L483.142 136.942C483.142 136.942 480.763 137.893 479.653 139.638C478.226 142.017 478.701 144.554 478.701 144.554" fill="black"/>
<path d="M301.387 187.694C301.387 172.627 314.233 170.089 314.233 170.089L301.545 172.627V187.694H301.387Z" fill="black" stroke="black" stroke-width="0.5" stroke-linecap="round" stroke-linejoin="round"/>
<path d="M301.387 187.694C301.387 172.627 288.54 170.089 288.54 170.089L301.228 172.627V187.694H301.387Z" fill="black" stroke="black" stroke-width="0.5" stroke-linecap="round" stroke-linejoin="round"/>
<path d="M242.07 107.125C242.229 95.7056 249.842 96.8158 249.842 96.8158L242.229 95.8642L242.07 107.125C242.07 107.283 242.07 107.283 242.07 107.125Z" fill="black"/>
<path d="M242.07 107.125C242.229 95.7056 249.842 96.8158 249.842 96.8158L242.229 95.8642L242.07 107.125ZM242.07 107.125C242.07 107.283 242.07 107.283 242.07 107.125Z" stroke="black" stroke-width="0.5" stroke-linecap="round" stroke-linejoin="round"/>
<path d="M242.07 107.442C241.912 95.7056 234.14 96.9744 234.14 96.9744L241.912 96.0228V107.442H242.07Z" fill="black" stroke="black" stroke-width="0.5" stroke-linecap="round" stroke-linejoin="round"/>
<path d="M302.338 143.761C302.497 136.624 310.586 137.735 310.586 137.735L302.497 136.624L302.338 143.761Z" fill="black" stroke="black" stroke-width="0.5" stroke-linecap="round" stroke-linejoin="round"/>
<path d="M302.338 143.92C302.18 136.783 293.933 137.893 293.933 137.893L302.18 136.624L302.338 143.761V143.92Z" fill="black" stroke="black" stroke-width="0.5" stroke-linecap="round" stroke-linejoin="round"/>
<path d="M453.801 307.437C453.801 289.832 465.22 286.66 465.22 286.66L453.801 289.832V307.437Z" fill="black" stroke="black" stroke-width="0.5" stroke-linecap="round" stroke-linejoin="round"/>
<path d="M301.387 285.708C301.387 272.703 312.172 270.8 312.172 270.8L301.545 273.02L301.387 285.708Z" fill="black" stroke="black" stroke-width="0.2" stroke-linecap="round" stroke-linejoin="round"/>
<path d="M301.386 285.708C301.386 272.703 290.602 270.8 290.602 270.8L301.228 273.02L301.386 285.708Z" fill="black" stroke="black" stroke-width="0.2" stroke-linecap="round" stroke-linejoin="round"/>
<path d="M382.748 328.055C383.449 328.055 384.017 327.345 384.017 326.469C384.017 325.593 383.449 324.883 382.748 324.883C382.048 324.883 381.479 325.593 381.479 326.469C381.479 327.345 382.048 328.055 382.748 328.055Z" stroke="black" stroke-width="0.5" stroke-linecap="round" stroke-linejoin="round"/>
<path d="M73.4783 135.514C74.179 135.514 74.7471 134.804 74.7471 133.928C74.7471 133.052 74.179 132.342 73.4783 132.342C72.7775 132.342 72.2095 133.052 72.2095 133.928C72.2095 134.804 72.7775 135.514 73.4783 135.514Z" stroke="black" stroke-width="0.5" stroke-linecap="round" stroke-linejoin="round"/>
<path d="M246.987 309.34C247.687 309.34 248.255 308.63 248.255 307.754C248.255 306.878 247.687 306.168 246.987 306.168C246.286 306.168 245.718 306.878 245.718 307.754C245.718 308.63 246.286 309.34 246.987 309.34Z" stroke="black" stroke-width="0.5" stroke-linecap="round" stroke-linejoin="round"/>
<path d="M98.5373 306.961C99.2381 306.961 99.8061 306.251 99.8061 305.375C99.8061 304.499 99.2381 303.789 98.5373 303.789C97.8366 303.789 97.2686 304.499 97.2686 305.375C97.2686 306.251 97.8366 306.961 98.5373 306.961Z" stroke="black" stroke-width="0.5" stroke-linecap="round" stroke-linejoin="round"/>
<path d="M159.44 319.173C160.14 319.173 160.709 318.463 160.709 317.587C160.709 316.711 160.14 316.001 159.44 316.001C158.739 316.001 158.171 316.711 158.171 317.587C158.171 318.463 158.739 319.173 159.44 319.173Z" stroke="black" stroke-width="0.5" stroke-linecap="round" stroke-linejoin="round"/>
<path d="M469.978 311.877C470.679 311.877 471.247 311.167 471.247 310.291C471.247 309.415 470.679 308.705 469.978 308.705C469.278 308.705 468.709 309.415 468.709 310.291C468.709 311.167 469.278 311.877 469.978 311.877Z" stroke="black" stroke-width="0.5" stroke-linecap="round" stroke-linejoin="round"/>
<path d="M469.661 145.506C470.362 145.506 470.93 144.796 470.93 143.92C470.93 143.044 470.362 142.334 469.661 142.334C468.961 142.334 468.393 143.044 468.393 143.92C468.393 144.796 468.961 145.506 469.661 145.506Z" stroke="black" stroke-width="0.5" stroke-linecap="round" stroke-linejoin="round"/>
<path d="M385.286 163.111C385.987 163.111 386.555 162.401 386.555 161.525C386.555 160.649 385.987 159.939 385.286 159.939C384.585 159.939 384.017 160.649 384.017 161.525C384.017 162.401 384.585 163.111 385.286 163.111Z" stroke="black" stroke-width="0.5" stroke-linecap="round" stroke-linejoin="round"/>
<path d="M217.646 164.697C218.346 164.697 218.915 163.987 218.915 163.111C218.915 162.235 218.346 161.525 217.646 161.525C216.945 161.525 216.377 162.235 216.377 163.111C216.377 163.987 216.945 164.697 217.646 164.697Z" stroke="black" stroke-width="0.5" stroke-linecap="round" stroke-linejoin="round"/>
<path d="M233.506 309.34C234.206 309.34 234.774 308.63 234.774 307.754C234.774 306.878 234.206 306.168 233.506 306.168C232.805 306.168 232.237 306.878 232.237 307.754C232.237 308.63 232.805 309.34 233.506 309.34Z" stroke="black" stroke-width="0.5" stroke-linecap="round" stroke-linejoin="round"/>
<path d="M302.338 136.783V143.92" stroke="black" stroke-width="0.5" stroke-linecap="round" stroke-linejoin="round"/>
<path d="M242.07 96.0228V107.442" stroke="black" stroke-width="0.5" stroke-linecap="round" stroke-linejoin="round"/>
<path d="M23.6781 302.203V291.101L15.7481 289.356H14.9551V299.348C14.9551 299.348 14.9551 301.093 17.8099 301.568C20.6647 302.044 23.6781 302.203 23.6781 302.203Z" fill="#F26241"/>
<path d="M23.6778 302.203V290.784L32.2422 289.198V298.555C32.2422 298.555 33.1938 301.251 29.0702 301.727C24.9466 302.203 23.5192 302.203 23.6778 302.203Z" fill="#89422F"/>
<path d="M11.3072 258.112L0.36377 286.819L23.678 290.784L23.9952 260.174" fill="#8ED943"/>
<path d="M11.3072 258.112L0.36377 286.819L23.678 290.784L23.9952 260.174" stroke="black" stroke-width="0.5" stroke-linecap="round" stroke-linejoin="round"/>
<path d="M23.6777 290.784L49.0537 286.026L37.0001 257.795L23.9949 260.174" fill="#04BF8A"/>
<path d="M23.6777 290.784L49.0537 286.026L37.0001 257.795L23.9949 260.174" stroke="black" stroke-width="0.5" stroke-linecap="round" stroke-linejoin="round"/>
<path d="M15.1138 289.356V299.665C15.1138 300.934 18.9202 302.044 23.6782 302.044C28.4362 302.044 32.2426 300.934 32.2426 299.665V289.515" stroke="black" stroke-width="0.5" stroke-linecap="round" stroke-linejoin="round"/>
<path d="M23.9951 219.096L41.2825 257.002L23.9951 260.174" fill="#04BF8A"/>
<path d="M23.9951 219.096L41.2825 257.002L23.9951 260.174" stroke="black" stroke-width="0.5" stroke-linecap="round" stroke-linejoin="round"/>
<path d="M23.9951 260.174L7.0249 257.478L23.9951 219.096" fill="#8ED943"/>
<path d="M23.9951 260.174L7.0249 257.478L23.9951 219.096" stroke="black" stroke-width="0.5" stroke-linecap="round" stroke-linejoin="round"/>
<path d="M23.9949 259.857L23.6777 290.784" stroke="black" stroke-width="0.5" stroke-linecap="round" stroke-linejoin="round"/>
<path d="M23.9951 260.174V219.096" stroke="black" stroke-width="0.5" stroke-linecap="round" stroke-linejoin="round"/>
<path d="M29.3877 241.935L31.2909 243.362" stroke="black" stroke-width="0.5" stroke-linecap="round" stroke-linejoin="round"/>
<path d="M30.3394 244.314L32.2426 245.741" stroke="black" stroke-width="0.5" stroke-linecap="round" stroke-linejoin="round"/>
<path d="M32.7183 263.822L34.4629 265.249" stroke="black" stroke-width="0.5" stroke-linecap="round" stroke-linejoin="round"/>
<path d="M33.5112 266.201L35.4144 267.628" stroke="black" stroke-width="0.5" stroke-linecap="round" stroke-linejoin="round"/>
<path d="M168.797 85.5552V89.996L154.047 107.601C154.047 107.601 157.854 122.668 158.33 125.205C158.805 127.743 158.33 131.232 158.33 131.232C158.33 132.659 154.206 133.77 149.289 133.77C144.373 133.77 140.249 132.659 140.249 131.232C140.249 131.232 142.47 123.302 143.738 120.13C145.007 116.958 144.69 108.552 144.69 108.552L126.292 98.5604L125.341 93.4852L133.747 91.8992L134.54 96.4986L145.007 103.636" fill="#F26241"/>
<path d="M160.233 83.9692L168.797 85.5552V89.996L154.047 107.601L154.523 109.662C138.663 106.332 135.174 97.133 135.174 97.133L143.421 102.367L149.924 100.305L160.391 88.41V83.9692H160.233Z" fill="#89422F"/>
<path d="M200.993 46.0638V81.9074L175.3 86.6654V50.6632L200.993 46.0638Z" fill="#04BF8A" stroke="black" stroke-width="0.5" stroke-linecap="round" stroke-linejoin="round"/>
<path d="M147.227 68.2678V89.3616L122.486 93.961V72.7086L147.227 68.2678Z" fill="#04BF8A" stroke="black" stroke-width="0.5" stroke-linecap="round" stroke-linejoin="round"/>
<path d="M122.486 93.961L90.4487 88.2514V66.999L122.486 72.8672V93.961Z" fill="#8ED943" stroke="black" stroke-width="0.5" stroke-linecap="round" stroke-linejoin="round"/>
<path d="M147.228 68.1092L115.19 62.3996L90.4487 66.8404L122.486 72.8672L147.228 68.1092Z" fill="#8ED943" stroke="black" stroke-width="0.5" stroke-linecap="round" stroke-linejoin="round"/>
<path d="M168.797 85.5552V89.996L154.047 107.601C154.047 107.601 157.854 122.668 158.33 125.205C158.805 127.743 158.33 131.232 158.33 131.232C158.33 132.659 154.206 133.77 149.289 133.77C144.373 133.77 140.249 132.659 140.249 131.232C140.249 131.232 142.47 123.302 143.738 120.13C145.007 116.958 144.69 108.552 144.69 108.552L126.292 98.5604L125.341 93.4852L133.747 91.8992L134.54 96.4986L144.531 103.477" stroke="black" stroke-width="0.5" stroke-linecap="round" stroke-linejoin="round"/>
<path d="M143.104 102.525L149.131 100.781L160.233 88.2514V83.9692" stroke="black" stroke-width="0.5" stroke-linecap="round" stroke-linejoin="round"/>
<path d="M125.182 63.6684L123.596 68.2678C123.596 68.2678 120.583 68.9022 119.472 68.2678C116.618 66.5232 114.08 62.8754 114.08 62.8754" fill="#F26241"/>
<path d="M125.182 63.6684L123.596 68.2678C123.596 68.2678 120.583 68.9022 119.472 68.2678C116.618 66.5232 114.08 62.8754 114.08 62.8754" stroke="black" stroke-width="0.5" stroke-linecap="round" stroke-linejoin="round"/>
<path d="M123.438 67.3162L124.706 63.6684L121.376 64.4614L115.825 63.3512" fill="black"/>
<path d="M122.486 39.244V64.3028L151.985 58.5932V33.5344L145.8 34.6446L122.486 39.244Z" fill="#04BF8A" stroke="black" stroke-width="0.5" stroke-linecap="round" stroke-linejoin="round"/>
<path d="M122.486 64.3028L90.6074 58.5932V33.5344L122.486 39.244V64.3028Z" fill="#8ED943" stroke="black" stroke-width="0.5" stroke-linecap="round" stroke-linejoin="round"/>
<path d="M90.6069 33.5344L120.107 27.6662L151.985 33.5344L122.486 39.244L90.6069 33.5344Z" fill="#8ED943" stroke="black" stroke-width="0.5" stroke-linecap="round" stroke-linejoin="round"/>
<path d="M175.3 86.6654L142.152 80.6386V44.795L175.3 50.6632V86.6654Z" fill="#8ED943" stroke="black" stroke-width="0.5" stroke-linecap="round" stroke-linejoin="round"/>
<path d="M142.152 44.795L167.846 40.037L200.993 46.0638L175.3 50.6632L142.152 44.795Z" fill="#8ED943" stroke="black" stroke-width="0.5" stroke-linecap="round" stroke-linejoin="round"/>
<path d="M167.846 90.789L168.797 89.996V85.5552L160.233 83.9692V86.031" fill="black"/>
<path d="M134.698 96.9744L134.381 96.6572L133.588 91.8992L129.147 92.6922L125.182 93.4852" fill="black"/>
<path d="M97.5859 40.037C97.5859 40.037 97.5859 41.4644 98.8547 42.8918" stroke="black" stroke-width="0.5" stroke-linecap="round" stroke-linejoin="round"/>
<path d="M96.3169 42.5746C96.3169 42.5746 96.3169 44.002 97.5857 45.4294" stroke="black" stroke-width="0.5" stroke-linecap="round" stroke-linejoin="round"/>
<path d="M189.732 67.792C189.732 67.792 189.732 68.7436 190.684 69.8538" stroke="black" stroke-width="0.5" stroke-linecap="round" stroke-linejoin="round"/>
<path d="M188.781 69.5366C188.781 69.5366 188.781 70.4882 189.732 71.5984" stroke="black" stroke-width="0.5" stroke-linecap="round" stroke-linejoin="round"/>
<path d="M160.233 66.3646C160.233 66.3646 160.233 67.792 161.502 69.2194" stroke="black" stroke-width="0.5" stroke-linecap="round" stroke-linejoin="round"/>
<path d="M158.964 68.9022C158.964 68.9022 158.964 70.3296 160.233 71.757" stroke="black" stroke-width="0.5" stroke-linecap="round" stroke-linejoin="round"/>
<path d="M112.177 85.8724C112.177 85.8724 112.177 86.5068 112.811 87.2998" stroke="black" stroke-width="0.5" stroke-linecap="round" stroke-linejoin="round"/>
<path d="M117.093 84.9208C117.093 84.9208 117.093 85.8724 116.618 86.824" stroke="black" stroke-width="0.5" stroke-linecap="round" stroke-linejoin="round"/>
<path d="M114.556 85.238C114.556 85.238 114.556 86.6654 114.556 88.0928" stroke="black" stroke-width="0.5" stroke-linecap="round" stroke-linejoin="round"/>
<path d="M183.547 40.6714C183.547 40.6714 182.278 43.209 182.278 44.6364" stroke="black" stroke-width="0.5" stroke-linecap="round" stroke-linejoin="round"/>
<path d="M163.246 63.3512C163.246 63.3512 163.881 66.999 163.881 69.0608" stroke="black" stroke-width="0.5" stroke-linecap="round" stroke-linejoin="round"/>
<path d="M180.534 41.1472C180.534 41.1472 180.534 42.5746 180.534 44.002" stroke="black" stroke-width="0.5" stroke-linecap="round" stroke-linejoin="round"/>
<path d="M64.9142 135.038C64.9142 135.038 61.9008 127.108 70.941 125.998L57.46 128.219C57.46 128.219 61.9008 128.853 63.9626 133.611" fill="black"/>
<path d="M209.399 163.111C209.399 163.111 208.288 155.181 215.901 152.96L203.689 154.705C203.689 154.705 208.447 155.339 209.399 163.111Z" fill="black"/>
<path d="M84.5805 314.098L95.3653 312.036C87.4353 313.622 89.8143 306.802 89.8143 306.802C89.8143 306.802 87.7525 312.829 84.4219 314.098H84.5805Z" fill="black"/>
<path d="M144.69 325.834L155.475 323.614C147.703 325.517 150.082 318.221 150.082 318.221C150.082 318.221 147.862 324.565 144.69 325.834Z" fill="black"/>
<path d="M396.547 338.205L382.59 335.509C390.837 337.095 391.63 330.434 391.63 330.434C391.63 330.434 391.789 335.509 396.547 338.205Z" fill="black"/>
<path d="M483.301 321.711L470.137 318.539C478.384 320.125 478.226 313.463 478.226 313.463C478.226 313.463 478.702 318.856 483.301 321.711Z" fill="black"/>
<path d="M371.646 324.407V269.373L360.386 267.311V322.345L371.646 324.407Z" fill="black" stroke="black" stroke-width="0.5" stroke-linecap="round" stroke-linejoin="round"/>
<path d="M371.646 269.373C347.222 299.189 367.681 323.455 367.681 323.455L371.646 324.248C371.646 324.248 353.883 299.031 371.646 273.655V269.373Z" fill="#FFD148" stroke="black" stroke-width="0.5" stroke-linejoin="round"/>
<path d="M371.646 276.827C351.187 299.982 371.646 323.138 371.646 323.138V318.697C371.646 318.697 356.896 300.775 371.646 281.109V276.827Z" fill="#39E1DD" stroke="black" stroke-width="0.5" stroke-linejoin="round"/>
<path d="M540.555 73.5016L525.964 71.1226L512.166 73.6602L526.757 76.0392L540.555 73.5016Z" fill="#8ED943" stroke="black" stroke-width="0.5" stroke-linecap="round" stroke-linejoin="round"/>
<path d="M512.166 73.6602V89.8374V89.996L526.757 92.2164V76.0392L512.166 73.6602Z" fill="#8ED943" stroke="black" stroke-width="0.5" stroke-linecap="round" stroke-linejoin="round"/>
<path d="M526.757 92.0578V76.0392L540.556 73.5016V89.6788L526.757 92.2164" fill="#04BF8A"/>
<path d="M526.757 92.0578V76.0392L540.556 73.5016V89.6788L526.757 92.2164" stroke="black" stroke-width="0.5" stroke-linejoin="round"/>
<path d="M538.494 76.8322L541.507 76.0392" stroke="black" stroke-width="0.5" stroke-linecap="round" stroke-linejoin="round"/>
<path d="M538.494 78.4182H541.824" stroke="black" stroke-width="0.5" stroke-linecap="round" stroke-linejoin="round"/>
<path d="M521.206 78.4182L524.219 83.3348" stroke="black" stroke-width="0.5" stroke-linecap="round" stroke-linejoin="round"/>
<path d="M520.096 80.0042L521.999 83.1762" stroke="black" stroke-width="0.5" stroke-linecap="round" stroke-linejoin="round"/>
<path d="M237.947 337.412V328.53L231.603 327.103H230.968V335.192C230.968 335.192 230.968 336.619 233.189 336.936C235.409 337.253 237.788 337.412 237.788 337.412" fill="#F26241"/>
<path d="M237.947 337.412V328.213L244.925 326.944V334.399C244.925 334.399 245.56 336.46 242.388 336.936C239.216 337.412 237.947 337.412 237.947 337.412Z" fill="#89422F"/>
<path d="M228.114 302.361L219.232 325.2L237.947 328.372L238.264 303.947" fill="#8ED943"/>
<path d="M228.114 302.361L219.232 325.2L237.947 328.372L238.264 303.947" stroke="black" stroke-width="0.5" stroke-linecap="round" stroke-linejoin="round"/>
<path d="M237.947 328.372L258.248 324.565L248.573 302.044L238.264 303.947" fill="#04BF8A"/>
<path d="M237.947 328.372L258.248 324.565L248.573 302.044L238.264 303.947" stroke="black" stroke-width="0.5" stroke-linecap="round" stroke-linejoin="round"/>
<path d="M231.127 327.262V335.509C231.127 336.619 234.14 337.412 238.105 337.412C242.07 337.412 245.084 336.619 245.084 335.509V327.42" stroke="black" stroke-width="0.5" stroke-linecap="round" stroke-linejoin="round"/>
<path d="M238.264 271.117L251.904 301.41L238.264 303.947" fill="#04BF8A"/>
<path d="M238.264 271.117L251.904 301.41L238.264 303.947" stroke="black" stroke-width="0.5" stroke-linecap="round" stroke-linejoin="round"/>
<path d="M238.264 303.947L224.625 301.727L238.264 271.117" fill="#8ED943"/>
<path d="M238.264 303.947L224.625 301.727L238.264 271.117" stroke="black" stroke-width="0.5" stroke-linecap="round" stroke-linejoin="round"/>
<path d="M238.264 303.63L237.947 328.372" stroke="black" stroke-width="0.5" stroke-linecap="round" stroke-linejoin="round"/>
<path d="M238.264 303.947V271.117" stroke="black" stroke-width="0.5" stroke-linecap="round" stroke-linejoin="round"/>
<path d="M242.546 289.356L243.973 290.466" stroke="black" stroke-width="0.5" stroke-linecap="round" stroke-linejoin="round"/>
<path d="M243.339 291.259L244.767 292.528" stroke="black" stroke-width="0.5" stroke-linecap="round" stroke-linejoin="round"/>
<path d="M245.084 306.802L246.511 307.912" stroke="black" stroke-width="0.5" stroke-linecap="round" stroke-linejoin="round"/>
<path d="M245.877 308.864L247.304 309.974" stroke="black" stroke-width="0.5" stroke-linecap="round" stroke-linejoin="round"/>
<path d="M197.979 331.702V324.883L193.063 323.772H192.587V329.958C192.587 329.958 192.587 331.068 194.332 331.385C196.076 331.702 197.979 331.702 197.979 331.702Z" fill="#F26241"/>
<path d="M197.979 331.702V324.724L203.372 323.772V329.482C203.372 329.482 203.848 331.068 201.469 331.385C199.09 331.702 198.138 331.702 197.979 331.702Z" fill="#89422F"/>
<path d="M190.525 304.74L183.706 322.186L197.98 324.724L198.297 305.851" fill="#8ED943"/>
<path d="M190.525 304.74L183.706 322.186L197.98 324.724L198.297 305.851" stroke="black" stroke-width="0.5" stroke-linecap="round" stroke-linejoin="round"/>
<path d="M197.979 324.724L213.681 321.869L206.227 304.423L198.297 305.851" fill="#04BF8A"/>
<path d="M197.979 324.724L213.681 321.869L206.227 304.423L198.297 305.851" stroke="black" stroke-width="0.5" stroke-linecap="round" stroke-linejoin="round"/>
<path d="M192.746 323.931V330.275C192.746 331.068 195.125 331.702 198.138 331.702C201.151 331.702 203.53 331.068 203.53 330.275V324.09" stroke="black" stroke-width="0.5" stroke-linecap="round" stroke-linejoin="round"/>
<path d="M198.297 280.792L208.923 303.947L198.297 305.851" fill="#04BF8A"/>
<path d="M198.297 280.792L208.923 303.947L198.297 305.851" stroke="black" stroke-width="0.5" stroke-linecap="round" stroke-linejoin="round"/>
<path d="M198.297 305.851L187.829 304.265L198.297 280.792" fill="#8ED943"/>
<path d="M198.297 305.851L187.829 304.265L198.297 280.792" stroke="black" stroke-width="0.5" stroke-linecap="round" stroke-linejoin="round"/>
<path d="M198.297 305.692L197.979 324.724" stroke="black" stroke-width="0.5" stroke-linecap="round" stroke-linejoin="round"/>
<path d="M198.297 305.851V280.792" stroke="black" stroke-width="0.5" stroke-linecap="round" stroke-linejoin="round"/>
<path d="M201.627 294.749L202.738 295.542" stroke="black" stroke-width="0.5" stroke-linecap="round" stroke-linejoin="round"/>
<path d="M202.103 296.176L203.213 297.128" stroke="black" stroke-width="0.5" stroke-linecap="round" stroke-linejoin="round"/>
<path d="M203.531 308.23L204.641 309.023" stroke="black" stroke-width="0.5" stroke-linecap="round" stroke-linejoin="round"/>
<path d="M204.165 309.657L205.275 310.609" stroke="black" stroke-width="0.5" stroke-linecap="round" stroke-linejoin="round"/>
<path d="M183.522 146.441C185.6 146.123 187.156 145.023 186.997 143.984C186.838 142.945 185.024 142.36 182.946 142.678C180.868 142.997 179.313 144.097 179.472 145.136C179.631 146.175 181.444 146.759 183.522 146.441Z" stroke="black" stroke-width="0.5" stroke-linecap="round" stroke-linejoin="round"/>
<path d="M207.02 142.017L279.183 128.536L244.291 123.143L178.63 137.576L207.02 142.017Z" fill="#3A3F74" stroke="black" stroke-width="0.5" stroke-linecap="round" stroke-linejoin="round"/>
<path d="M182.754 144.237L184.181 144.396" stroke="black" stroke-width="0.5" stroke-linecap="round" stroke-linejoin="round"/>
<path d="M277.205 124.08C278.953 123.973 280.327 123.177 280.274 122.303C280.221 121.429 278.76 120.807 277.011 120.914C275.263 121.021 273.889 121.816 273.942 122.69C273.996 123.565 275.456 124.187 277.205 124.08Z" stroke="black" stroke-width="0.5" stroke-miterlimit="3.9999" stroke-linecap="round" stroke-linejoin="round"/>
<path d="M276.487 122.033L278.073 122.509" stroke="black" stroke-width="0.5" stroke-linecap="round" stroke-linejoin="round"/>
<path d="M276.645 122.668L278.072 122.033" stroke="black" stroke-width="0.5" stroke-linecap="round" stroke-linejoin="round"/>
<path d="M244.291 134.721C244.45 121.875 253.807 123.302 253.807 123.302L244.45 122.033V134.88C244.291 134.88 244.291 134.88 244.291 134.88V134.721Z" fill="black" stroke="black" stroke-width="0.5" stroke-linecap="round" stroke-linejoin="round"/>
<path d="M243.974 134.721C243.974 121.875 237.471 123.302 237.471 123.302L243.815 122.033V134.88L243.974 134.721Z" fill="black" stroke="black" stroke-width="0.5" stroke-linecap="round" stroke-linejoin="round"/>
<path d="M276.169 128.853C227.796 106.173 191.16 139.321 191.16 139.321L197.821 140.431C197.821 140.431 229.858 114.896 269.825 130.122L276.011 129.012L276.169 128.853Z" fill="#FFD148" stroke="black" stroke-width="0.5" stroke-miterlimit="10"/>
<path d="M264.592 131.232C226.528 111.566 198.931 140.589 198.931 140.589L204.165 141.541C204.165 141.541 227.321 119.178 258.723 132.342L264.592 131.232Z" fill="#39E1DD" stroke="black" stroke-width="0.5" stroke-linejoin="round"/>
<path d="M217.012 339.474V333.606L212.888 332.654H212.571V337.888C212.571 337.888 212.571 338.839 213.998 338.998C215.426 339.157 217.012 339.315 217.012 339.474Z" fill="#F26241"/>
<path d="M217.012 339.474V333.447L221.611 332.654V337.571C221.611 337.571 222.087 338.998 220.025 339.157C217.963 339.315 217.17 339.474 217.012 339.474Z" fill="#89422F"/>
<path d="M210.509 316.318L204.799 331.385L217.012 333.447L217.17 317.428" fill="#8ED943"/>
<path d="M210.509 316.318L204.799 331.385L217.012 333.447L217.17 317.428" stroke="black" stroke-width="0.5" stroke-linecap="round" stroke-linejoin="round"/>
<path d="M217.012 333.447L230.493 331.068L224.149 316.16L217.17 317.428" fill="#04BF8A"/>
<path d="M217.012 333.447L230.493 331.068L224.149 316.16L217.17 317.428" stroke="black" stroke-width="0.5" stroke-linecap="round" stroke-linejoin="round"/>
<path d="M212.571 332.813V338.205C212.571 338.839 214.633 339.474 217.17 339.474C219.708 339.474 221.77 338.839 221.77 338.205V332.813" stroke="black" stroke-width="0.5" stroke-linecap="round" stroke-linejoin="round"/>
<path d="M217.17 295.859L226.369 315.684L217.17 317.428" fill="#04BF8A"/>
<path d="M217.17 295.859L226.369 315.684L217.17 317.428" stroke="black" stroke-width="0.5" stroke-linecap="round" stroke-linejoin="round"/>
<path d="M217.17 317.428L208.289 316.001L217.17 295.859" fill="#8ED943"/>
<path d="M217.17 317.428L208.289 316.001L217.17 295.859" stroke="black" stroke-width="0.5" stroke-linecap="round" stroke-linejoin="round"/>
<path d="M217.17 317.27L217.012 333.447" stroke="black" stroke-width="0.5" stroke-linecap="round" stroke-linejoin="round"/>
<path d="M217.17 317.428V295.859" stroke="black" stroke-width="0.5" stroke-linecap="round" stroke-linejoin="round"/>
<path d="M220.025 307.754L220.977 308.547" stroke="black" stroke-width="0.5" stroke-linecap="round" stroke-linejoin="round"/>
<path d="M220.5 309.023L221.452 309.816" stroke="black" stroke-width="0.5" stroke-linecap="round" stroke-linejoin="round"/>
<path d="M221.77 319.332L222.721 320.125" stroke="black" stroke-width="0.5" stroke-linecap="round" stroke-linejoin="round"/>
<path d="M222.245 320.6L223.197 321.393" stroke="black" stroke-width="0.5" stroke-linecap="round" stroke-linejoin="round"/>
<path d="M398.291 111.09V100.305L390.996 98.5604H390.361V108.394C390.361 108.394 390.361 110.138 392.899 110.614C395.437 111.09 398.291 111.248 398.291 111.09Z" fill="#F26241"/>
<path d="M398.292 111.09V99.9878L406.222 98.4018V107.442C406.222 107.442 407.015 109.98 403.367 110.455C399.719 110.931 398.292 110.931 398.292 110.931V111.09Z" fill="#89422F"/>
<path d="M386.872 68.4264L376.722 96.1814L398.291 99.9878L398.609 70.3296" fill="#8ED943"/>
<path d="M386.872 68.4264L376.722 96.1814L398.291 99.9878L398.609 70.3296" stroke="black" stroke-width="0.5" stroke-linecap="round" stroke-linejoin="round"/>
<path d="M398.292 99.9878L421.923 95.547L410.662 68.1092L398.609 70.3296" fill="#04BF8A"/>
<path d="M398.292 99.9878L421.923 95.547L410.662 68.1092L398.609 70.3296" stroke="black" stroke-width="0.5" stroke-linecap="round" stroke-linejoin="round"/>
<path d="M390.361 98.719V108.711C390.361 109.98 394.009 111.09 398.291 111.09C402.574 111.09 406.221 109.98 406.221 108.711V98.8776" stroke="black" stroke-width="0.5" stroke-linecap="round" stroke-linejoin="round"/>
<path d="M398.608 30.521L414.627 67.3162L398.608 70.3296" fill="#04BF8A"/>
<path d="M398.608 30.521L414.627 67.3162L398.608 70.3296" stroke="black" stroke-width="0.5" stroke-linecap="round" stroke-linejoin="round"/>
<path d="M398.609 70.3296L382.907 67.792L398.609 30.521" fill="#8ED943"/>
<path d="M398.609 70.3296L382.907 67.792L398.609 30.521" stroke="black" stroke-width="0.5" stroke-linecap="round" stroke-linejoin="round"/>
<path d="M398.609 70.0124L398.292 99.9878" stroke="black" stroke-width="0.5" stroke-linecap="round" stroke-linejoin="round"/>
<path d="M398.608 70.3296V30.521" stroke="black" stroke-width="0.5" stroke-linecap="round" stroke-linejoin="round"/>
<path d="M403.684 52.725L405.428 53.9938" stroke="black" stroke-width="0.5" stroke-linecap="round" stroke-linejoin="round"/>
<path d="M404.477 55.104L406.221 56.3728" stroke="black" stroke-width="0.5" stroke-linecap="round" stroke-linejoin="round"/>
<path d="M406.697 73.9774L408.283 75.2462" stroke="black" stroke-width="0.5" stroke-linecap="round" stroke-linejoin="round"/>
<path d="M407.49 76.3564L409.235 77.6252" stroke="black" stroke-width="0.5" stroke-linecap="round" stroke-linejoin="round"/>
<path d="M368.792 110.931V103.001L363.241 101.732H362.765V108.869C362.765 108.869 362.765 110.138 364.668 110.455C366.572 110.773 368.792 110.931 368.792 110.931Z" fill="#F26241"/>
<path d="M368.792 110.931V102.843L374.977 101.732V108.394C374.977 108.394 375.611 110.297 372.757 110.614C369.902 110.931 368.792 110.931 368.792 110.931Z" fill="#89422F"/>
<path d="M359.91 79.5284L352.139 99.9878L368.792 102.684L369.109 80.9558" fill="#8ED943"/>
<path d="M359.91 79.5284L352.139 99.9878L368.792 102.684L369.109 80.9558" stroke="black" stroke-width="0.5" stroke-linecap="round" stroke-linejoin="round"/>
<path d="M368.792 102.684L386.872 99.3534L378.308 79.2112L369.109 80.9558" fill="#04BF8A"/>
<path d="M368.792 102.684L386.872 99.3534L378.308 79.2112L369.109 80.9558" stroke="black" stroke-width="0.5" stroke-linecap="round" stroke-linejoin="round"/>
<path d="M362.606 101.732V109.187C362.606 110.138 365.303 110.931 368.792 110.931C372.281 110.931 374.977 110.138 374.977 109.187V101.891" stroke="black" stroke-width="0.5" stroke-linecap="round" stroke-linejoin="round"/>
<path d="M369.109 51.7734L381.321 78.7354L369.109 80.9558" fill="#04BF8A"/>
<path d="M369.109 51.7734L381.321 78.7354L369.109 80.9558" stroke="black" stroke-width="0.5" stroke-linecap="round" stroke-linejoin="round"/>
<path d="M369.109 80.9558L357.055 79.0526L369.109 51.7734" fill="#8ED943"/>
<path d="M369.109 80.9558L357.055 79.0526L369.109 51.7734" stroke="black" stroke-width="0.5" stroke-linecap="round" stroke-linejoin="round"/>
<path d="M369.109 80.7972L368.792 102.684" stroke="black" stroke-width="0.5" stroke-linecap="round" stroke-linejoin="round"/>
<path d="M369.109 80.9558V51.7734" stroke="black" stroke-width="0.5" stroke-linecap="round" stroke-linejoin="round"/>
<path d="M372.916 67.9506L374.184 69.0608" stroke="black" stroke-width="0.5" stroke-linecap="round" stroke-linejoin="round"/>
<path d="M373.55 69.6952L374.819 70.8054" stroke="black" stroke-width="0.5" stroke-linecap="round" stroke-linejoin="round"/>
<path d="M375.136 83.4934L376.563 84.6036" stroke="black" stroke-width="0.5" stroke-linecap="round" stroke-linejoin="round"/>
<path d="M375.77 85.238L377.197 86.3482" stroke="black" stroke-width="0.5" stroke-linecap="round" stroke-linejoin="round"/>
<path d="M424.936 120.923V114.103L420.178 112.993H419.702V119.178C419.702 119.178 419.702 120.289 421.447 120.606C423.191 120.923 424.936 120.923 424.936 120.923Z" fill="#F26241"/>
<path d="M424.936 120.923V113.945L430.17 112.993V118.703C430.17 118.703 430.646 120.289 428.267 120.606C425.888 120.923 424.936 120.923 424.936 120.923Z" fill="#89422F"/>
<path d="M417.482 94.1196L410.662 111.566L424.936 113.945L425.253 95.2298" fill="#8ED943"/>
<path d="M417.482 94.1196L410.662 111.566L424.936 113.945L425.253 95.2298" stroke="black" stroke-width="0.5" stroke-linecap="round" stroke-linejoin="round"/>
<path d="M424.936 113.945L440.479 111.09L433.183 93.8024L425.253 95.2298" fill="#04BF8A"/>
<path d="M424.936 113.945L440.479 111.09L433.183 93.8024L425.253 95.2298" stroke="black" stroke-width="0.5" stroke-linecap="round" stroke-linejoin="round"/>
<path d="M419.702 113.152V119.337C419.702 120.13 422.081 120.764 424.936 120.764C427.791 120.764 430.17 120.13 430.17 119.337V113.152" stroke="black" stroke-width="0.5" stroke-linecap="round" stroke-linejoin="round"/>
<path d="M425.253 70.3296L435.721 93.3266L425.253 95.2298" fill="#04BF8A"/>
<path d="M425.253 70.3296L435.721 93.3266L425.253 95.2298" stroke="black" stroke-width="0.5" stroke-linecap="round" stroke-linejoin="round"/>
<path d="M425.253 95.2298L414.786 93.6438L425.253 70.3296" fill="#8ED943"/>
<path d="M425.253 95.2298L414.786 93.6438L425.253 70.3296" stroke="black" stroke-width="0.5" stroke-linecap="round" stroke-linejoin="round"/>
<path d="M425.253 95.0712L424.936 113.945" stroke="black" stroke-width="0.5" stroke-linecap="round" stroke-linejoin="round"/>
<path d="M425.253 95.2298V70.3296" stroke="black" stroke-width="0.5" stroke-linecap="round" stroke-linejoin="round"/>
<path d="M428.425 84.2864L429.536 85.0794" stroke="black" stroke-width="0.5" stroke-linecap="round" stroke-linejoin="round"/>
<path d="M429.06 85.7138L430.17 86.5068" stroke="black" stroke-width="0.5" stroke-linecap="round" stroke-linejoin="round"/>
<path d="M430.487 97.6088L431.597 98.4018" stroke="black" stroke-width="0.5" stroke-linecap="round" stroke-linejoin="round"/>
<path d="M430.963 99.0362L432.073 99.9878" stroke="black" stroke-width="0.5" stroke-linecap="round" stroke-linejoin="round"/>
<path d="M280.134 69.5366C280.134 67.792 280.768 65.7302 281.403 63.827C282.354 60.655 284.258 57.9588 286.478 55.4212C290.76 50.6632 292.981 42.416 292.663 35.7548C292.029 24.3356 282.513 14.8196 271.094 14.5024C258.247 14.0266 246.669 25.2872 246.669 38.1338C246.669 51.139 249.683 52.0906 254.282 57.3244C255.868 59.3862 257.137 61.6066 257.93 63.9856C258.564 65.7302 258.882 67.3162 258.882 68.585" fill="#FFD148"/>
<path d="M280.134 69.5366C280.134 67.792 280.768 65.7302 281.403 63.827C282.354 60.655 284.258 57.9588 286.478 55.4212C290.76 50.6632 292.981 42.416 292.663 35.7548C292.029 24.3356 282.513 14.8196 271.094 14.5024C258.247 14.0266 246.669 25.2872 246.669 38.1338C246.669 51.139 249.683 52.0906 254.282 57.3244C255.868 59.3862 257.137 61.6066 257.93 63.9856C258.564 65.7302 258.882 67.3162 258.882 68.585" stroke="black" stroke-width="0.5" stroke-linejoin="round"/>
<path d="M261.102 66.5232C261.102 65.413 260.785 63.9856 260.309 62.3996C259.516 60.1792 258.406 58.1174 256.978 56.3728C250.952 48.76 250.952 44.9536 250.952 38.7682C250.952 27.5076 260.15 17.6744 271.57 17.6744C272.045 17.6744 273.79 17.6744 274.583 17.9916H275.376L276.486 18.4674C264.75 17.9916 254.599 27.9834 254.599 39.244C254.599 50.5046 254.599 49.0772 260.626 56.5314C262.054 58.276 263.322 60.3378 263.957 62.5582C264.433 63.9856 264.908 65.5716 264.75 66.5232" fill="#FAEFCD"/>
<path d="M256.979 68.585V83.3348V83.4934L270.301 85.5552V70.6468L256.979 68.585Z" fill="#3A3F74" stroke="black" stroke-width="0.5" stroke-linecap="round" stroke-linejoin="round"/>
<path d="M270.301 85.3966V70.6468L282.83 68.2678V83.1762L270.301 85.5552" fill="#3A3F74"/>
<path d="M270.301 85.3966V70.6468L282.83 68.2678V83.1762L270.301 85.5552" stroke="black" stroke-width="0.5" stroke-linecap="round" stroke-linejoin="round"/>
<path d="M262.847 84.445V87.9342H263.005L270.459 89.203V85.5552L262.847 84.445Z" fill="#3A3F74" stroke="black" stroke-width="0.5" stroke-linecap="round" stroke-linejoin="round"/>
<path d="M270.459 89.203V85.5552L277.438 84.2864V87.7756L270.459 89.203Z" fill="#3A3F74" stroke="black" stroke-width="0.5" stroke-linecap="round" stroke-linejoin="round"/>
<path d="M267.287 82.066L259.992 80.6386" stroke="black" stroke-width="0.5" stroke-linecap="round" stroke-linejoin="round"/>
<path d="M267.287 80.48L259.992 79.0526" stroke="black" stroke-width="0.5" stroke-linecap="round" stroke-linejoin="round"/>
<path d="M273.156 82.066L280.61 80.6386" stroke="black" stroke-width="0.5" stroke-linecap="round" stroke-linejoin="round"/>
<path d="M273.156 80.48L280.61 79.0526" stroke="black" stroke-width="0.5" stroke-linecap="round" stroke-linejoin="round"/>
<path d="M282.83 68.2678L269.508 66.206L256.979 68.585L270.301 70.6468L282.83 68.2678Z" fill="#FFD148" stroke="black" stroke-width="0.5" stroke-linejoin="round"/>
<path d="M266.97 67.6334C266.018 63.827 265.067 60.1792 263.957 56.5314C263.481 54.9454 263.164 53.518 262.846 51.932C262.371 50.1874 261.736 48.1256 261.736 46.2224C261.736 44.9536 262.053 43.6848 263.164 43.0504C264.432 42.2574 265.701 42.7332 266.494 43.8434C267.287 44.9536 268.397 45.9052 269.032 47.174C269.349 47.967 269.349 48.76 268.397 48.9186C267.922 48.9186 267.129 48.9186 266.653 48.4428C266.018 47.8084 266.336 46.5396 266.653 45.7466C267.446 44.002 269.032 41.7816 271.094 42.0988C273.155 42.416 274.107 45.2708 273.631 47.174C273.631 47.967 272.838 49.0772 272.045 48.1256C271.411 47.3326 272.838 46.2224 273.473 45.7466C274.266 45.1122 275.376 44.4778 276.486 44.4778C277.596 44.4778 277.913 44.9536 277.913 46.0638C277.913 49.0772 276.327 52.0906 275.534 54.9454C274.266 59.2276 273.314 63.5098 272.997 67.9506C272.997 68.4264 273.79 68.4264 273.79 67.9506C274.266 63.034 275.376 58.1174 276.803 53.3594C277.438 51.6148 278.072 49.7116 278.389 47.8084C278.548 46.6982 279.024 44.9536 278.231 44.002C277.596 43.3676 276.327 43.3676 275.376 43.6848C274.107 44.002 272.68 44.9536 271.728 46.0638C271.094 46.8568 270.776 47.967 271.728 48.76C272.68 49.553 273.631 49.2358 274.107 48.1256C275.217 46.0638 274.266 42.8918 272.362 41.7816C269.825 40.1956 267.604 42.2574 266.336 44.3192C265.701 45.2708 265.067 46.5396 265.384 47.8084C265.543 49.0772 266.653 49.553 267.922 49.7116C269.666 49.7116 270.301 48.2842 269.666 46.8568C269.349 46.0638 268.715 45.4294 268.08 44.795C267.446 44.002 266.811 43.0504 266.018 42.416C264.115 40.9886 261.578 42.2574 260.943 44.3192C260.467 45.7466 260.785 47.174 260.943 48.6014C261.26 49.8702 261.578 51.139 261.736 52.2492C263.005 57.483 264.432 62.5582 265.86 67.792C265.86 68.2678 266.811 68.1092 266.653 67.6334H266.97Z" fill="black"/>
<path d="M269.983 7.20682V0.862823" stroke="black" stroke-width="0.5" stroke-linecap="round" stroke-linejoin="round"/>
<path d="M283.623 9.26863L285.685 3.24182" stroke="black" stroke-width="0.5" stroke-linecap="round" stroke-linejoin="round"/>
<path d="M292.663 16.5642L297.58 12.5992" stroke="black" stroke-width="0.5" stroke-linecap="round" stroke-linejoin="round"/>
<path d="M247.304 16.5642L242.229 12.5992" stroke="black" stroke-width="0.5" stroke-linecap="round" stroke-linejoin="round"/>
<path d="M257.137 9.90301L253.965 4.51062" stroke="black" stroke-width="0.5" stroke-linecap="round" stroke-linejoin="round"/>
</svg>
